<svg id="visual" viewBox="0 0 960 540" width="960" height="540" xmlns="http://www.w3.org/2000/svg" xmlns:xlink="http://www.w3.org/1999/xlink" version="1.1"><rect width="960" height="540" fill="#121212"></rect><g><g transform="translate(861 476)"><path d="M64.3 -21.5C71.3 0.7 56.7 29.4 35.6 43.4C14.5 57.5 -13.2 56.9 -32.3 43.3C-51.4 29.7 -61.8 3.1 -55 -18.8C-48.2 -40.8 -24.1 -58 2.3 -58.8C28.6 -59.5 57.2 -43.7 64.3 -21.5Z" stroke="#F7760E" fill="none" stroke-width="16"></path></g><g transform="translate(572 209)"><path d="M33.6 -10.3C38.5 4.2 34 22.4 21.8 31.7C9.6 41 -10.4 41.3 -23.2 32C-35.9 22.7 -41.6 3.7 -36.5 -11C-31.5 -25.6 -15.7 -35.9 -0.7 -35.7C14.4 -35.5 28.7 -24.7 33.6 -10.3Z" stroke="#F7760E" fill="none" stroke-width="16"></path></g><g transform="translate(128 149)"><path d="M55.5 -17.7C62.9 4.7 53.6 32.8 34.1 47C14.6 61.2 -15.1 61.5 -32.4 48.1C-49.7 34.7 -54.6 7.7 -47.1 -14.8C-39.6 -37.2 -19.8 -55.2 2.1 -55.9C24.1 -56.6 48.1 -40 55.5 -17.7Z" stroke="#F7760E" fill="none" stroke-width="16"></path></g><g transform="translate(418 360)"><path d="M54.9 -19.4C62.2 4.5 52.8 32.2 32.7 47.4C12.5 62.6 -18.5 65.4 -36.4 51.9C-54.4 38.5 -59.2 8.8 -50.9 -16.4C-42.7 -41.6 -21.3 -62.4 1.2 -62.8C23.8 -63.2 47.7 -43.2 54.9 -19.4Z" stroke="#F7760E" fill="none" stroke-width="16"></path></g><g transform="translate(736 108)"><path d="M38.5 -12.6C44.8 6.9 41.3 29.5 27.6 39.9C13.8 50.3 -10.1 48.6 -26.5 36.7C-42.8 24.7 -51.6 2.6 -45.9 -16.1C-40.2 -34.7 -20.1 -49.9 -2 -49.2C16.1 -48.6 32.2 -32.1 38.5 -12.6Z" stroke="#F7760E" fill="none" stroke-width="16"></path></g><g transform="translate(294 498)"><path d="M58.7 -18.1C66.6 5.5 57.2 35.7 36.9 50.3C16.6 65 -14.7 64.1 -34.4 49.3C-54.1 34.5 -62.4 5.8 -54.7 -17.4C-47.1 -40.5 -23.5 -58.1 0.9 -58.4C25.3 -58.7 50.7 -41.7 58.7 -18.1Z" stroke="#F7760E" fill="none" stroke-width="16"></path></g><g transform="translate(521 19)"><path d="M39.6 -11C45.5 5.2 40.3 26.8 26.9 36.4C13.5 46 -8.3 43.6 -23.7 32.5C-39.2 21.3 -48.3 1.3 -43.4 -13.7C-38.4 -28.7 -19.2 -38.7 -1.2 -38.3C16.9 -38 33.7 -27.2 39.6 -11Z" stroke="#F7760E" fill="none" stroke-width="16"></path></g><g transform="translate(927 238)"><path d="M43 -14.5C48.4 2.6 40.4 23.6 25.4 34.3C10.4 45.1 -11.6 45.6 -25.4 35.4C-39.3 25.3 -45.1 4.4 -39.5 -13C-33.9 -30.5 -16.9 -44.4 0.9 -44.7C18.8 -45 37.7 -31.7 43 -14.5Z" stroke="#F7760E" fill="none" stroke-width="16"></path></g><g transform="translate(553 516)"><path d="M56.2 -20.8C62.6 1.6 50.7 27.4 31.1 41.2C11.6 55 -15.4 56.8 -33.1 44.3C-50.7 31.8 -58.9 5 -51.8 -18.3C-44.7 -41.5 -22.3 -61.2 1.3 -61.6C24.9 -62.1 49.7 -43.1 56.2 -20.8Z" stroke="#F7760E" fill="none" stroke-width="16"></path></g><g transform="translate(339 166)"><path d="M44.6 -13.8C50.6 4.1 43.4 26.9 27.6 38.5C11.8 50.1 -12.5 50.4 -28.7 38.8C-45 27.2 -53 3.7 -46.9 -14.4C-40.8 -32.4 -20.4 -45 -0.5 -44.8C19.3 -44.6 38.6 -31.7 44.6 -13.8Z" stroke="#F7760E" fill="none" stroke-width="16"></path></g><g transform="translate(43 539)"><path d="M60.6 -20.9C67.6 1.9 54.8 29.8 34.6 43.6C14.4 57.3 -13.3 56.8 -31.2 43.6C-49.2 30.4 -57.5 4.5 -50.6 -17.9C-43.8 -40.4 -21.9 -59.5 2.4 -60.3C26.8 -61 53.6 -43.6 60.6 -20.9Z" stroke="#F7760E" fill="none" stroke-width="16"></path></g></g></svg>