<svg id="visual" viewBox="0 0 900 600" width="900" height="600" xmlns="http://www.w3.org/2000/svg" xmlns:xlink="http://www.w3.org/1999/xlink" version="1.1"><path d="M0 73L300 163L600 85L900 199L900 0L600 0L300 0L0 0Z" fill="#121212"></path><path d="M0 73L300 181L600 103L900 235L900 197L600 83L300 161L0 71Z" fill="#141414"></path><path d="M0 139L300 253L600 163L900 253L900 233L600 101L300 179L0 71Z" fill="#171717"></path><path d="M0 253L300 271L600 301L900 331L900 251L600 161L300 251L0 137Z" fill="#191919"></path><path d="M0 259L300 313L600 331L900 373L900 329L600 299L300 269L0 251Z" fill="#1b1b1b"></path><path d="M0 265L300 331L600 331L900 409L900 371L600 329L300 311L0 257Z" fill="#1d1d1d"></path><path d="M0 271L300 391L600 367L900 421L900 407L600 329L300 329L0 263Z" fill="#1f1f1f"></path><path d="M0 319L300 439L600 433L900 439L900 419L600 365L300 389L0 269Z" fill="#212121"></path><path d="M0 409L300 451L600 499L900 499L900 437L600 431L300 437L0 317Z" fill="#232323"></path><path d="M0 421L300 457L600 523L900 535L900 497L600 497L300 449L0 407Z" fill="#262626"></path><path d="M0 493L300 475L600 589L900 589L900 533L600 521L300 455L0 419Z" fill="#282828"></path><path d="M0 601L300 601L600 601L900 601L900 587L600 587L300 473L0 491Z" fill="#2a2a2a"></path></svg>