<svg id="visual" viewBox="0 0 900 600" width="900" height="600" xmlns="http://www.w3.org/2000/svg" xmlns:xlink="http://www.w3.org/1999/xlink" version="1.1"><rect x="0" y="0" width="900" height="600" fill="#1e1e1e"></rect><path d="M422 0L423 0L423 55L436 55L436 109L441 109L441 164L439 164L439 218L423 218L423 273L420 273L420 327L436 327L436 382L438 382L438 436L432 436L432 491L424 491L424 545L432 545L432 600L0 600L0 545L0 545L0 491L0 491L0 436L0 436L0 382L0 382L0 327L0 327L0 273L0 273L0 218L0 218L0 164L0 164L0 109L0 109L0 55L0 55L0 0L0 0Z" fill="#404357"></path><path d="M402 0L389 0L389 55L397 55L397 109L395 109L395 164L389 164L389 218L400 218L400 273L390 273L390 327L393 327L393 382L404 382L404 436L387 436L387 491L405 491L405 545L397 545L397 600L0 600L0 545L0 545L0 491L0 491L0 436L0 436L0 382L0 382L0 327L0 327L0 273L0 273L0 218L0 218L0 164L0 164L0 109L0 109L0 55L0 55L0 0L0 0Z" fill="#42455a"></path><path d="M364 0L365 0L365 55L354 55L354 109L364 109L364 164L367 164L367 218L360 218L360 273L366 273L366 327L353 327L353 382L360 382L360 436L366 436L366 491L366 491L366 545L365 545L365 600L0 600L0 545L0 545L0 491L0 491L0 436L0 436L0 382L0 382L0 327L0 327L0 273L0 273L0 218L0 218L0 164L0 164L0 109L0 109L0 55L0 55L0 0L0 0Z" fill="#44475d"></path><path d="M331 0L326 0L326 55L329 55L329 109L328 109L328 164L326 164L326 218L330 218L330 273L325 273L325 327L333 327L333 382L332 382L332 436L316 436L316 491L328 491L328 545L317 545L317 600L0 600L0 545L0 545L0 491L0 491L0 436L0 436L0 382L0 382L0 327L0 327L0 273L0 273L0 218L0 218L0 164L0 164L0 109L0 109L0 55L0 55L0 0L0 0Z" fill="#464a60"></path><path d="M293 0L290 0L290 55L291 55L291 109L297 109L297 164L286 164L286 218L288 218L288 273L282 273L282 327L286 327L286 382L293 382L293 436L298 436L298 491L295 491L295 545L283 545L283 600L0 600L0 545L0 545L0 491L0 491L0 436L0 436L0 382L0 382L0 327L0 327L0 273L0 273L0 218L0 218L0 164L0 164L0 109L0 109L0 55L0 55L0 0L0 0Z" fill="#484c63"></path><path d="M251 0L260 0L260 55L247 55L247 109L253 109L253 164L256 164L256 218L250 218L250 273L249 273L249 327L260 327L260 382L247 382L247 436L248 436L248 491L251 491L251 545L262 545L262 600L0 600L0 545L0 545L0 491L0 491L0 436L0 436L0 382L0 382L0 327L0 327L0 273L0 273L0 218L0 218L0 164L0 164L0 109L0 109L0 55L0 55L0 0L0 0Z" fill="#4a4e66"></path><path d="M226 0L213 0L213 55L219 55L219 109L224 109L224 164L220 164L220 218L224 218L224 273L224 273L224 327L224 327L224 382L213 382L213 436L226 436L226 491L215 491L215 545L219 545L219 600L0 600L0 545L0 545L0 491L0 491L0 436L0 436L0 382L0 382L0 327L0 327L0 273L0 273L0 218L0 218L0 164L0 164L0 109L0 109L0 55L0 55L0 0L0 0Z" fill="#4c5069"></path><path d="M188 0L186 0L186 55L185 55L185 109L184 109L184 164L184 164L184 218L181 218L181 273L187 273L187 327L181 327L181 382L189 382L189 436L184 436L184 491L183 491L183 545L190 545L190 600L0 600L0 545L0 545L0 491L0 491L0 436L0 436L0 382L0 382L0 327L0 327L0 273L0 273L0 218L0 218L0 164L0 164L0 109L0 109L0 55L0 55L0 0L0 0Z" fill="#4e536c"></path><path d="M147 0L151 0L151 55L143 55L143 109L144 109L144 164L147 164L147 218L150 218L150 273L145 273L145 327L145 327L145 382L149 382L149 436L148 436L148 491L152 491L152 545L154 545L154 600L0 600L0 545L0 545L0 491L0 491L0 436L0 436L0 382L0 382L0 327L0 327L0 273L0 273L0 218L0 218L0 164L0 164L0 109L0 109L0 55L0 55L0 0L0 0Z" fill="#50556f"></path><path d="M108 0L108 0L108 55L108 55L108 109L111 109L111 164L112 164L112 218L117 218L117 273L111 273L111 327L111 327L111 382L108 382L108 436L118 436L118 491L110 491L110 545L116 545L116 600L0 600L0 545L0 545L0 491L0 491L0 436L0 436L0 382L0 382L0 327L0 327L0 273L0 273L0 218L0 218L0 164L0 164L0 109L0 109L0 55L0 55L0 0L0 0Z" fill="#535772"></path><path d="M78 0L79 0L79 55L76 55L76 109L82 109L82 164L74 164L74 218L76 218L76 273L73 273L73 327L75 327L75 382L76 382L76 436L73 436L73 491L81 491L81 545L81 545L81 600L0 600L0 545L0 545L0 491L0 491L0 436L0 436L0 382L0 382L0 327L0 327L0 273L0 273L0 218L0 218L0 164L0 164L0 109L0 109L0 55L0 55L0 0L0 0Z" fill="#555a75"></path><path d="M43 0L44 0L44 55L45 55L45 109L43 109L43 164L46 164L46 218L45 218L45 273L43 273L43 327L41 327L41 382L39 382L39 436L43 436L43 491L41 491L41 545L44 545L44 600L0 600L0 545L0 545L0 491L0 491L0 436L0 436L0 382L0 382L0 327L0 327L0 273L0 273L0 218L0 218L0 164L0 164L0 109L0 109L0 55L0 55L0 0L0 0Z" fill="#575c78"></path></svg>